<svg xmlns="http://www.w3.org/2000/svg" style="display: none">
  <defs>
    <symbol id="project" viewBox="0 0 31 30">
      <path
        d="M26.115 3.281H4.552a.936.936 0 0 0-.937.938V25.78c0 .519.419.938.937.938h21.563a.937.937 0 0 0 .937-.938V4.22a.937.937 0 0 0-.937-.938Zm-15 18.516a.235.235 0 0 1-.235.234H8.537a.235.235 0 0 1-.235-.234V8.203c0-.129.106-.234.235-.234h2.343c.13 0 .235.105.235.234v13.594Zm5.625-8.203a.235.235 0 0 1-.235.234h-2.343a.235.235 0 0 1-.235-.234v-5.39c0-.13.106-.235.235-.235h2.343c.13 0 .235.105.235.234v5.39Zm5.625 2.11a.235.235 0 0 1-.235.233h-2.343a.235.235 0 0 1-.235-.234v-7.5c0-.129.106-.234.235-.234h2.343c.13 0 .235.105.235.234v7.5Z" />
    </symbol>
    <symbol
      id="search" viewBox="0 0 33 32">
      <path fill="none" stroke-linecap="round" stroke-linejoin="round" stroke-width="2.667"
        d="M15 8a6.667 6.667 0 0 1 6.667 6.667m.878 7.54L28.333 28m-2.666-13.333c0 5.89-4.776 10.666-10.667 10.666-5.89 0-10.666-4.775-10.666-10.666S9.109 4 15 4s10.667 4.776 10.667 10.667Z" />
    </symbol>
    <symbol
      id="hide-password" fill="currentColor" viewBox="0 0 31 30">
      <g>
        <path fill="currentColor"
          d="M15.334 21.75a6.75 6.75 0 1 1 0-13.5 6.75 6.75 0 0 1 0 13.5Zm0-17.25c-10.5 0-15 10.5-15 10.5s4.5 10.5 15 10.5 15-10.5 15-10.5-4.5-10.5-15-10.5Z" />
        <path fill="currentColor" d="M15.334 18.75a3.75 3.75 0 1 0 0-7.5 3.75 3.75 0 0 0 0 7.5Z" />
      </g>
    </symbol>
    <symbol
      id="show-password" fill="currentColor" viewBox="0 0 31 30">
      <g>
        <path fill="currentColor"
          d="M15.333 21.75a6.75 6.75 0 1 1 0-13.5 6.75 6.75 0 0 1 0 13.5Zm0-17.25c-10.5 0-15 10.5-15 10.5s4.5 10.5 15 10.5 15-10.5 15-10.5-4.5-10.5-15-10.5Z" />
        <path fill="currentColor"
          d="M15.333 18.75a3.75 3.75 0 1 0 0-7.5 3.75 3.75 0 0 0 0 7.5Z" />
        <path stroke="currentColor" stroke-width="2" d="m2.04 1.293 24.749 24.749" />
      </g>
      <defs>
        <clipPath id="clip0_1529_4593">
          <path fill="currentColor" d="M.333 0h30v30h-30z" />
        </clipPath>
      </defs>
    </symbol>
    <symbol
      id="settings" viewBox="0 0 31 30">
      <path fill-rule="evenodd"
        d="M17.252.228C16.696 0 15.992 0 14.584 0c-1.409 0-2.113 0-2.669.228-.74.305-1.329.889-1.636 1.624-.14.336-.194.726-.216 1.295-.032.837-.464 1.61-1.194 2.03-.73.418-1.623.402-2.368.011-.508-.266-.876-.414-1.239-.461a3.04 3.04 0 0 0-2.234.594c-.477.363-.83.968-1.534 2.179C.79 8.71.438 9.316.36 9.907c-.105.79.11 1.587.598 2.218.223.288.536.53 1.022.834.714.445 1.174 1.204 1.174 2.041s-.46 1.596-1.174 2.041c-.486.303-.799.546-1.022.834a2.983 2.983 0 0 0-.599 2.218c.079.591.431 1.197 1.135 2.407s1.057 1.816 1.534 2.18a3.04 3.04 0 0 0 2.234.593c.363-.047.731-.195 1.238-.461.746-.391 1.638-.407 2.369.011.73.42 1.162 1.193 1.194 2.03.021.57.076.96.216 1.295.307.735.896 1.32 1.636 1.624.556.228 1.26.228 2.669.228 1.408 0 2.112 0 2.668-.228a3.012 3.012 0 0 0 1.636-1.624c.14-.335.195-.726.216-1.295.032-.837.464-1.61 1.194-2.03.73-.418 1.623-.402 2.368-.011.508.266.876.414 1.238.461a3.04 3.04 0 0 0 2.235-.594c.477-.363.83-.968 1.534-2.18.704-1.21 1.056-1.815 1.135-2.406a2.984 2.984 0 0 0-.6-2.218c-.222-.288-.535-.53-1.021-.834-.714-.445-1.174-1.204-1.174-2.041s.46-1.596 1.174-2.041c.486-.303.799-.545 1.022-.834a2.984 2.984 0 0 0 .599-2.218c-.079-.591-.431-1.196-1.135-2.407-.704-1.21-1.056-1.816-1.534-2.18a3.04 3.04 0 0 0-2.234-.593c-.363.047-.731.195-1.239.461-.745.391-1.637.407-2.368-.012-.73-.418-1.162-1.193-1.194-2.03-.022-.568-.076-.958-.216-1.294A3.011 3.011 0 0 0 17.252.228ZM14.584 19.5c2.504 0 4.534-2.015 4.534-4.5s-2.03-4.5-4.534-4.5c-2.505 0-4.535 2.015-4.535 4.5s2.03 4.5 4.535 4.5Z"
        clip-rule="evenodd" />
    </symbol>
    <symbol id="sort" viewBox="0 0 24 24">
      <path
        d="M6.293 4.293a1 1 0 0 1 1.414 0l4 4a1 1 0 0 1-1.414 1.414L8 7.414V19a1 1 0 1 1-2 0V7.414L3.707 9.707a1 1 0 0 1-1.414-1.414l4-4ZM16 16.586V5a1 1 0 0 1 2 0v11.586l2.293-2.293a1 1 0 0 1 1.414 1.414l-4 4a1 1 0 0 1-1.414 0l-4-4a1 1 0 0 1 1.414-1.414L16 16.586Z" />
    </symbol>
    <symbol
      id="tick" viewBox="0 0 31 30">
      <g clip-path="url(#clip0_108_95)">
        <path fill-rule="evenodd"
          d="M.333 15a15 15 0 1 1 30 0 15 15 0 0 1-30 0Zm14.144 6.42 8.636-10.796-1.56-1.248-7.364 9.202-5.216-4.346-1.28 1.536 6.784 5.652Z"
          clip-rule="evenodd" />
      </g>
    </symbol>
    <symbol id="user" fill="currentColor"
      viewBox="0 0 30 30">
      <g fill-rule="evenodd" clip-path="url(#clip0_329_1131)" clip-rule="evenodd">
        <path
          d="M7.5 10a7.5 7.5 0 1 1 15 0 7.5 7.5 0 0 1-15 0ZM6.789 21.128C8.819 20.277 11.529 20 15 20c3.464 0 6.169.275 8.198 1.123 2.178.909 3.515 2.454 4.228 4.7A1.287 1.287 0 0 1 26.2 27.5H3.793a1.282 1.282 0 0 1-1.222-1.668c.71-2.247 2.043-3.792 4.218-4.704Z" />
      </g>
    </symbol>
    <symbol
      id="account-circle" fill="currentColor" viewBox="0 0 31 30">
      <path
        d="M15.334 2.5c-6.9 0-12.5 5.6-12.5 12.5s5.6 12.5 12.5 12.5 12.5-5.6 12.5-12.5-5.6-12.5-12.5-12.5Zm0 5a4.38 4.38 0 0 1 4.375 4.375 4.38 4.38 0 0 1-4.375 4.375 4.38 4.38 0 0 1-4.375-4.375A4.38 4.38 0 0 1 15.334 7.5Zm0 17.5c-2.538 0-5.538-1.025-7.675-3.6a12.433 12.433 0 0 1 15.35 0C20.87 23.975 17.87 25 15.334 25Z" />
    </symbol>
    <symbol
      id="arrow-down" viewBox="0 0 24 24">
      <path fill-rule="evenodd"
        d="M7 9a1 1 0 0 0-.707 1.707l5 5a1 1 0 0 0 1.414 0l5-5A1 1 0 0 0 17 9H7Z"
        clip-rule="evenodd" />
    </symbol>
    <symbol id="attach" viewBox="0 0 25 24">
      <path
        d="M11.733 23.7a5.1 5.1 0 0 1-5.1-5.1v-7.8a3.3 3.3 0 1 1 6.6 0V18h-1.8v-7.2a1.5 1.5 0 0 0-3 0v7.8a3.3 3.3 0 1 0 6.6 0V4.8a2.7 2.7 0 0 0-5.4 0V6h-1.8V4.8a4.5 4.5 0 0 1 9 0v13.8a5.1 5.1 0 0 1-5.1 5.1Z" />
    </symbol>
    <symbol
      id="bell" fill="currentColor" viewBox="0 0 31 30">
      <path
        d="M7.833 10a7.5 7.5 0 1 1 15 0v2.289c0 1.774.483 3.515 1.396 5.036l.691 1.153c.459.765.688 1.147.704 1.46a1.25 1.25 0 0 1-.66 1.165c-.276.147-.721.147-1.613.147H7.316c-.891 0-1.337 0-1.613-.147a1.25 1.25 0 0 1-.66-1.166c.016-.312.245-.694.704-1.46l.692-1.152a9.789 9.789 0 0 0 1.394-5.036V10ZM18.271 22.5c.104 0 .188.084.179.187-.056.595-.376 1.156-.907 1.58-.586.47-1.38.733-2.21.733-.828 0-1.623-.263-2.21-.732-.53-.425-.85-.986-.906-1.58a.175.175 0 0 1 .179-.188h5.875Z" />
    </symbol>
    <symbol
      id="bell-notification" viewBox="0 0 31 30">
      <path fill-rule="evenodd"
        d="M15.333 2.5a7.5 7.5 0 0 0-7.5 7.5v2.289a9.789 9.789 0 0 1-1.394 5.036l-.692 1.153c-.459.765-.688 1.147-.704 1.46a1.25 1.25 0 0 0 .66 1.165c.276.147.722.147 1.613.147h16.035c.891 0 1.337 0 1.613-.147a1.25 1.25 0 0 0 .66-1.166c-.016-.312-.245-.694-.704-1.459l-.692-1.153a9.79 9.79 0 0 1-1.395-5.036v-.643c0-.205 0-.308-.058-.363-.059-.056-.171-.05-.396-.038a3.125 3.125 0 0 1-1.753-5.815c.22-.13.331-.195.344-.285.012-.09-.066-.171-.221-.334A7.479 7.479 0 0 0 15.333 2.5Z"
        clip-rule="evenodd" />
      <path
        d="M22.209 10a1.875 1.875 0 1 0 0-3.75 1.875 1.875 0 0 0 0 3.75ZM18.271 22.5c.104 0 .188.084.179.187-.056.595-.376 1.156-.907 1.58-.586.47-1.38.733-2.21.733-.828 0-1.623-.263-2.21-.732-.53-.425-.85-.986-.906-1.58a.175.175 0 0 1 .179-.188h5.875Z" />
    </symbol>
    <symbol
      id="calendar" fill="currentColor" viewBox="0 0 33 32">
      <path
        d="M10.667 3.333a1 1 0 1 0-2 0V5.44c-1.92.154-3.18.53-4.105 1.456C3.637 7.821 3.26 9.081 3.106 11H29.56c-.154-1.92-.53-3.179-1.456-4.105C27.179 5.97 25.919 5.593 24 5.44V3.333a1 1 0 0 0-2 0v2.018c-.887-.018-1.881-.018-3-.018h-5.333c-1.119 0-2.113 0-3 .018V3.333Z" />
      <path fill-rule="evenodd"
        d="M3 16c0-1.119 0-2.113.017-3H29.65c.017.887.017 1.881.017 3v2.667c0 5.028 0 7.542-1.562 9.104-1.562 1.562-4.077 1.562-9.105 1.562h-5.333c-5.028 0-7.543 0-9.105-1.562C3 26.21 3 23.695 3 18.667V16Zm20 2.667A1.333 1.333 0 1 0 23 16a1.333 1.333 0 0 0 0 2.667ZM23 24a1.333 1.333 0 1 0 0-2.667A1.333 1.333 0 0 0 23 24Zm-5.333-6.667a1.333 1.333 0 1 1-2.667 0 1.333 1.333 0 0 1 2.667 0Zm0 5.334a1.333 1.333 0 1 1-2.667 0 1.333 1.333 0 0 1 2.667 0Zm-8-4a1.333 1.333 0 1 0 0-2.667 1.333 1.333 0 0 0 0 2.667Zm0 5.333a1.333 1.333 0 1 0 0-2.667 1.333 1.333 0 0 0 0 2.667Z"
        clip-rule="evenodd" />
    </symbol>
    <symbol id="edit" fill="currentColor" viewBox="0 0 31 30">
      <g>
        <path
          d="M25.613 4.396c-3.141-3.16-6.213-3.23-9.442 0l-1.983 1.966a.64.64 0 0 0-.158.65c1.229 4.3 4.668 7.742 8.968 8.97.053.018.14.018.193.018.176 0 .351-.07.474-.193l1.948-1.966C27.21 12.243 28 10.716 28 9.154c0-1.58-.79-3.143-2.387-4.758ZM20.564 17.912a14.943 14.943 0 0 1-1.417-.72c-.368-.21-.736-.438-1.086-.683-.294-.176-.625-.439-.957-.702a1.865 1.865 0 0 1-.294-.246c-.57-.438-1.178-1.035-1.749-1.684-.036-.035-.147-.14-.239-.298a6.581 6.581 0 0 1-.7-.895 8.37 8.37 0 0 1-.662-.965 13.649 13.649 0 0 1-.736-1.333c-.24-.491-.423-.947-.589-1.386l-9.902 9.439C1.59 19.053.963 20.21.835 21.07l-.792 5.228c-.165 1.106.148 2.14.865 2.825.608.579 1.436.877 2.356.877.203 0 .405-.017.607-.035l5.467-.737c.901-.123 2.116-.702 2.76-1.333L22 18.456c-.46-.14-.92-.333-1.436-.544Z" />
      </g>
    </symbol>
    <symbol
      id="email" fill="currentColor" viewBox="0 0 24 20">
      <path
        d="M21.6113 5L12.1669 11.25L2.72244 5V2.5L12.1669 8.75L21.6113 2.5M21.6113 0H2.72244C1.41202 0 0.361328 1.1125 0.361328 2.5V17.5C0.361328 18.163 0.610087 18.7989 1.05288 19.2678C1.49568 19.7366 2.09623 20 2.72244 20H21.6113C22.2375 20 22.8381 19.7366 23.2809 19.2678C23.7237 18.7989 23.9724 18.163 23.9724 17.5V2.5C23.9724 1.83696 23.7237 1.20107 23.2809 0.732233C22.8381 0.263392 22.2375 0 21.6113 0Z" />
    </symbol>
    <symbol
      id="error" viewBox="0 0 31 30">
      <g clip-path="url(#clip0_108_109)">
        <path
          d="M15.333 0c-8.28 0-15 6.72-15 15 0 8.28 6.72 15 15 15 8.28 0 15-6.72 15-15 0-8.28-6.72-15-15-15Zm0 16.5c-.825 0-1.5-.675-1.5-1.5V9c0-.825.675-1.5 1.5-1.5s1.5.675 1.5 1.5v6c0 .825-.675 1.5-1.5 1.5Zm1.5 6h-3v-3h3v3Z" />
      </g>
    </symbol>
    <symbol
      id="idea" viewBox="0 0 31 30">
      <g clip-path="url(#clip0_329_1126)">
        <path
          d="M18.905 26.071c0 .395-.32.715-.714.715h-5.715a.715.715 0 0 1 0-1.429h5.715c.394 0 .714.32.714.714Zm-.714 1.072h-5.715a.717.717 0 0 0-.677.947c.094.297.395.481.707.481h.011c.413 0 .79.234.974.603l.008.015a1.47 1.47 0 0 0 1.313.811h1.043c.556 0 1.064-.314 1.313-.811l.007-.015a1.09 1.09 0 0 1 .975-.603h.01c.312 0 .613-.184.708-.481a.716.716 0 0 0-.677-.947ZM15.334 4.286c.394 0 .714-.32.714-.715V.714a.715.715 0 0 0-1.429 0v2.857c0 .395.32.715.715.715Zm-7.577 2.72a.71.71 0 0 0 1.01 0 .714.714 0 0 0 0-1.01l-2.02-2.021a.714.714 0 1 0-1.01 1.01l2.02 2.02Zm-1.71 6.565a.715.715 0 0 0-.714-.714H2.476a.715.715 0 0 0 0 1.429h2.857c.395 0 .715-.32.715-.715Zm1.71 6.566-2.02 2.02a.714.714 0 1 0 1.01 1.01l2.02-2.02a.714.714 0 1 0-1.01-1.01Zm15.153 0a.714.714 0 0 0-1.01 1.01l2.02 2.02a.711.711 0 0 0 1.01 0 .714.714 0 0 0 0-1.01l-2.02-2.02Zm5.28-7.28h-2.857a.715.715 0 0 0 0 1.429h2.858a.715.715 0 0 0 0-1.429Zm-5.786-5.642c.183 0 .366-.07.506-.21l2.02-2.02a.714.714 0 1 0-1.01-1.01l-2.02 2.02a.714.714 0 0 0 .505 1.22Zm-3.5 17.07c0 .395-.32.715-.713.715h-5.715a.712.712 0 0 1-.041-1.424c-.444-4.02-4.602-4.915-4.602-9.647a7.5 7.5 0 1 1 15 0c0 4.732-4.157 5.627-4.601 9.647.375.021.673.33.673.71ZM13.688 8.433a.537.537 0 0 0-.697-.295 6.272 6.272 0 0 0-3.702 4.229.536.536 0 0 0 1.037.268 5.195 5.195 0 0 1 3.067-3.504.536.536 0 0 0 .295-.698Z" />
      </g>
    </symbol>
    <symbol
      id="menu-burger" fill="currentColor" viewBox="0 0 25 24">
      <path stroke-linecap="round" stroke-linejoin="round" stroke-width="2.5"
        d="M3.333 6h18m-18 6h18m-18 6h18" />
    </symbol>
    <symbol id="message" fill="currentColor"
      viewBox="0 -3 39 38">
      <g>
        <path
          d="m21.777 27.708-.813 1.374c-.725 1.224-2.536 1.224-3.26 0l-.814-1.374c-.63-1.066-.946-1.598-1.452-1.893-.507-.295-1.145-.306-2.42-.328-1.883-.032-3.064-.148-4.055-.558a7.5 7.5 0 0 1-4.059-4.059c-.57-1.378-.57-3.125-.57-6.62v-1.5c0-4.91 0-7.365 1.105-9.169a7.5 7.5 0 0 1 2.476-2.476C9.718 0 12.173 0 17.083 0h4.5c4.91 0 7.366 0 9.17 1.105a7.5 7.5 0 0 1 2.475 2.476c1.106 1.804 1.106 4.259 1.106 9.169v1.5c0 3.495 0 5.242-.571 6.62a7.5 7.5 0 0 1-4.06 4.06c-.99.41-2.17.525-4.054.557-1.275.022-1.913.033-2.42.328-.506.294-.822.827-1.452 1.893Z" />
      </g>
    </symbol>
    <symbol
      id="message-notification" viewBox="0 -3 39 38">
      <path fill="currentColor" d="M30.334 4.5a4.5 4.5 0 1 1-9 0 4.5 4.5 0 0 1 9 0Z" />
      <path
        d="M20.788.016C19.85 0 18.79 0 17.583 0h-4.5c-4.91 0-7.365 0-9.168 1.105a7.5 7.5 0 0 0-2.476 2.476C.333 5.385.333 7.84.333 12.75v1.5c0 3.495 0 5.242.571 6.62a7.5 7.5 0 0 0 4.06 4.06c.99.41 2.17.525 4.054.557 1.275.022 1.913.033 2.42.328.506.295.821.827 1.452 1.893l.813 1.374c.725 1.224 2.536 1.224 3.26 0l.814-1.374c.63-1.066.946-1.599 1.452-1.893.507-.295 1.144-.306 2.42-.328 1.883-.032 3.064-.148 4.054-.558a7.5 7.5 0 0 0 4.06-4.059c.57-1.378.57-3.125.57-6.62v-1.5c0-1.207 0-2.267-.016-3.204a6.75 6.75 0 0 1-9.53-9.53Z" />
    </symbol>
    <symbol
      id="password" fill="currentColor" viewBox="0 0 31 30">
      <path
        d="M15.334 21.25a2.5 2.5 0 1 0 0-5 2.5 2.5 0 0 0 0 5Zm7.5-11.25a2.5 2.5 0 0 1 2.5 2.5V25a2.5 2.5 0 0 1-2.5 2.5h-15a2.5 2.5 0 0 1-2.5-2.5V12.5a2.5 2.5 0 0 1 2.5-2.5h1.25V7.5a6.25 6.25 0 0 1 12.5 0V10h1.25Zm-7.5-6.25a3.75 3.75 0 0 0-3.75 3.75V10h7.5V7.5a3.75 3.75 0 0 0-3.75-3.75Z" />
    </symbol>
    <symbol
      id="icon-logo" viewBox="0 0 208 32">
      <path fill="#1877f2"
        d="M33 16c0 8.56-7.387 15.5-16.5 15.5S0 24.56 0 16C0 7.44 7.387.5 16.5.5S33 7.44 33 16z"
      />
      <path fill="#1877f2"
        d="M58.328 24.5h-3.07V14.492l-5.402 9.504c-.133.242-.32.426-.563.551a1.593 1.593 0 0 1-.762.188c-.266 0-.516-.063-.75-.188a1.357 1.357 0 0 1-.539-.551l-5.426-9.504V24.5h-3.047V8.996c0-.352.102-.664.305-.938.211-.273.484-.457.82-.551.164-.039.328-.051.492-.035.164.008.32.043.469.105.156.055.297.137.422.246.125.102.23.227.316.375l6.937 12.059 6.938-12.059c.18-.297.426-.508.738-.633.32-.125.652-.145.996-.059.328.094.598.277.809.551s.316.586.316.938v15.504zm16.219-4.195c0 .422-.074.879-.223 1.371a4.086 4.086 0 0 1-.727 1.359c-.328.414-.762.762-1.301 1.043-.531.281-1.18.422-1.945.422h-5.496c-.422 0-.879-.074-1.371-.223a4.202 4.202 0 0 1-1.359-.715 4.144 4.144 0 0 1-1.043-1.301c-.281-.539-.422-1.191-.422-1.957 0-.422.074-.879.223-1.371s.387-.945.715-1.359c.336-.422.77-.773 1.301-1.055.539-.281 1.191-.422 1.957-.422h5.496v2.906h-5.496c-.414 0-.734.129-.961.387-.227.25-.34.563-.34.938 0 .398.129.711.387.938.266.219.578.328.938.328h5.473c.414 0 .734-.125.961-.375s.34-.563.34-.938v-4.254c0-.398-.125-.715-.375-.949-.242-.234-.551-.351-.926-.351h-6.691v-2.895h6.691c.422 0 .875.074 1.359.223a3.96 3.96 0 0 1 1.359.726c.422.328.773.762 1.055 1.301.281.531.422 1.18.422 1.945v4.277zm13.687-5.426h-6.856c-.414 0-.727.105-.938.316-.211.203-.316.504-.316.902v8.402h-3.047v-8.402c0-.524.066-.992.199-1.406s.309-.777.527-1.09c.227-.32.484-.59.773-.809.289-.227.59-.41.902-.551a4.57 4.57 0 0 1 .961-.305 4.4 4.4 0 0 1 .914-.105h6.879v3.047zm16.899 9.621h-4.395l-6.14-5.93a1.416 1.416 0 0 1-.481-1.172 1.48 1.48 0 0 1 .574-1.101l5.567-4.488h4.875l-7.172 5.777 7.172 6.914zm-11.789 0h-3.047V6.477h3.047V24.5zm26.707-8.473c0 .422-.074.879-.223 1.371a3.98 3.98 0 0 1-2.027 2.402c-.531.281-1.18.422-1.946.422h-5.496v-2.895h5.496c.415 0 .735-.125.961-.375.227-.258.34-.574.34-.949 0-.398-.129-.711-.386-.938a1.312 1.312 0 0 0-.915-.34h-5.496c-.414 0-.734.129-.961.387-.226.25-.339.563-.339.938v4.254c0 .406.125.723.375.949.257.227.574.34.949.34h5.472v2.906h-5.496c-.421 0-.879-.074-1.371-.223a4.212 4.212 0 0 1-1.359-.715 4.144 4.144 0 0 1-1.043-1.301c-.281-.539-.422-1.191-.422-1.957v-4.277c0-.422.074-.875.223-1.359.148-.492.386-.945.715-1.359a4.075 4.075 0 0 1 1.3-1.055c.539-.281 1.192-.422 1.957-.422h5.496c.422 0 .875.074 1.36.223a3.96 3.96 0 0 1 1.359.726 3.9 3.9 0 0 1 1.055 1.301c.281.531.422 1.18.422 1.945zm13.57-1.148h-5.32V24.5h-3.082v-9.621h-3.961v-3.047h3.961V7.695h3.082v4.137h5.32v3.047zm19.09-.152c0 .695-.086 1.316-.258 1.863s-.406 1.031-.703 1.453c-.289.414-.625.77-1.008 1.066s-.785.539-1.207.727a5.817 5.817 0 0 1-1.265.41 6.002 6.002 0 0 1-1.196.129h-6.89v-3.047h6.89a3.597 3.597 0 0 0 1.055-.234 2.61 2.61 0 0 0 .82-.527c.227-.219.403-.48.528-.785.125-.312.187-.664.187-1.055v-1.383c-.039-.383-.121-.734-.246-1.055s-.297-.594-.516-.82a2.151 2.151 0 0 0-.773-.527 2.616 2.616 0 0 0-1.055-.199h-6.867c-.406 0-.715.105-.926.316s-.316.516-.316.914V24.5h-3.047V11.973c0-.781.141-1.445.422-1.992.289-.547.644-.988 1.066-1.324.43-.336.895-.578 1.395-.727a4.67 4.67 0 0 1 1.383-.234h6.89c.688 0 1.305.09 1.852.27a5.049 5.049 0 0 1 1.441.703c.422.289.778.625 1.067 1.008.296.383.539.785.726 1.207.195.414.336.836.422 1.266.086.422.129.82.129 1.195v1.383zm7.84 9.773h-1.36c-.437 0-.906-.074-1.406-.223a4.203 4.203 0 0 1-1.383-.727 4.096 4.096 0 0 1-1.066-1.324c-.281-.547-.422-1.215-.422-2.004V6.476h3.047v13.746c0 .375.117.676.351.902.235.219.528.328.879.328h1.36v3.047zm15.035-4.195c0 .422-.074.879-.223 1.371-.148.484-.39.938-.726 1.359-.328.414-.762.762-1.301 1.043-.531.281-1.18.422-1.945.422h-5.496a4.76 4.76 0 0 1-1.372-.223 4.212 4.212 0 0 1-1.359-.715 4.144 4.144 0 0 1-1.043-1.301c-.281-.539-.422-1.191-.422-1.957 0-.422.074-.879.223-1.371.148-.492.387-.945.715-1.359a4.068 4.068 0 0 1 1.301-1.055c.539-.281 1.191-.422 1.957-.422h5.496v2.906h-5.496c-.415 0-.735.129-.961.387-.227.25-.34.563-.34.938 0 .398.129.711.386.938.266.219.579.328.938.328h5.473c.414 0 .734-.125.961-.375.226-.25.339-.563.339-.938v-4.254c0-.398-.125-.715-.375-.949-.242-.234-.55-.351-.925-.351h-6.692v-2.895h6.692c.421 0 .875.074 1.359.223a3.96 3.96 0 0 1 1.359.726 3.9 3.9 0 0 1 1.055 1.301c.281.531.422 1.18.422 1.945v4.277zm14.871 4.195h-8.262c-.422 0-.883-.074-1.383-.223s-.964-.391-1.394-.727a4.302 4.302 0 0 1-1.066-1.324c-.282-.547-.422-1.215-.422-2.004v-4.125c0-.289.031-.594.093-.914.071-.32.176-.637.317-.949.14-.32.32-.625.539-.914.226-.289.496-.543.809-.762.32-.219.687-.395 1.101-.527s.883-.199 1.406-.199h8.262v3.047h-8.262c-.398 0-.703.102-.914.305-.203.203-.304.516-.304.938v4.102c0 .398.105.703.316.914s.519.316.926.316h8.238v3.047zm16.055-8.473c0 .422-.074.879-.223 1.371a4.086 4.086 0 0 1-.727 1.359c-.328.414-.761.762-1.3 1.043-.532.281-1.18.422-1.946.422h-5.496v-2.895h5.496c.414 0 .735-.125.961-.375.227-.258.34-.574.34-.949 0-.398-.129-.711-.387-.938a1.31 1.31 0 0 0-.914-.34h-5.496c-.414 0-.734.129-.961.387-.226.25-.339.563-.339.938v4.254c0 .406.125.723.375.949.257.227.574.34.949.34h5.472v2.906h-5.496c-.422 0-.879-.074-1.371-.223a4.212 4.212 0 0 1-1.359-.715 4.144 4.144 0 0 1-1.043-1.301c-.281-.539-.422-1.191-.422-1.957v-4.277c0-.422.074-.875.223-1.359.148-.492.386-.945.714-1.359.336-.422.77-.773 1.301-1.055.539-.281 1.192-.422 1.957-.422h5.496c.422 0 .875.074 1.36.223a3.96 3.96 0 0 1 1.359.726 3.9 3.9 0 0 1 1.055 1.301c.281.531.422 1.18.422 1.945z"
      />
    </symbol>
    <symbol
      id="icon-cancel"
      viewBox="0 0 32 32">
      <path fill="none" stroke-linecap="round" stroke-width="2" d="M22 22 10 10m12 0L10 22" />
    </symbol>
    <symbol
      id="info" viewBox="0 0 32 32">
      <path fill="currentColor"
        d="M16 23.667c-0.552 0-1-0.448-1-1v-8c0-0.552 0.448-1 1-1s1 0.448 1 1v8c0 0.552-0.448 1-1 1z"></path>
      <path fill="currentColor"
        d="M15.999 9.333c-0.736 0-1.333 0.597-1.333 1.333s0.597 1.333 1.333 1.333c0.736 0 1.333-0.597 1.333-1.333s-0.597-1.333-1.333-1.333z">
      </path>
      <path fill="currentColor"
        d="M30.333 16c0-7.916-6.417-14.333-14.333-14.333s-14.333 6.417-14.333 14.333 6.417 14.333 14.333 14.333c7.916 0 14.333-6.417 14.333-14.333zM15.999 3.667c6.812 0 12.333 5.522 12.333 12.333s-5.522 12.333-12.333 12.333c-6.811 0-12.333-5.522-12.333-12.333s5.522-12.333 12.333-12.333z">
      </path>
    </symbol>
    <symbol id="big-arrow-down" viewBox="0 0 33 32">
      <path stroke-linejoin="round" stroke-linecap="round" stroke-miterlimit="4"
        stroke-width="2.6667"
        d="M16.334 8v16M16.334 24l-6.667-6.667M16.334 24l6.667-6.667"></path>
    </symbol>
    <symbol
      id="thin-pen" viewBox="0 0 32 32">
      <path
        d="M15.2 24.215l9.861-9.861c-1.342-0.559-2.932-1.476-4.435-2.979s-2.421-3.093-2.98-4.436l-9.861 9.861c-0.769 0.77-1.154 1.154-1.485 1.579-0.39 0.5-0.725 1.042-0.998 1.615-0.231 0.486-0.404 1.002-0.748 2.034l-1.815 5.445c-0.169 0.508-0.037 1.068 0.342 1.447s0.939 0.511 1.447 0.341l5.444-1.815c1.032-0.344 1.549-0.516 2.034-0.748 0.573-0.273 1.114-0.608 1.615-0.998 0.424-0.331 0.809-0.716 1.579-1.485z">
      </path>
      <path
        d="M27.798 11.617c2.048-2.048 2.048-5.367 0-7.415s-5.368-2.048-7.415 0l-1.183 1.183c0.016 0.049 0.033 0.098 0.050 0.149 0.433 1.25 1.251 2.888 2.79 4.426s3.177 2.357 4.426 2.79c0.050 0.017 0.099 0.034 0.148 0.050l1.183-1.183z">
      </path>
    </symbol>
    <symbol id="select-arrow" viewBox="0 0 32 32">
      <path
        d="M9.333 12c-0.264 0-0.521 0.078-0.741 0.225s-0.39 0.355-0.491 0.598c-0.101 0.244-0.127 0.512-0.076 0.77s0.178 0.496 0.365 0.683l6.667 6.667c0.25 0.25 0.589 0.39 0.943 0.39s0.693-0.14 0.943-0.39l6.667-6.667c0.186-0.187 0.313-0.424 0.365-0.683s0.025-0.527-0.076-0.77c-0.101-0.244-0.272-0.452-0.491-0.598s-0.477-0.225-0.741-0.225h-13.333z"></path>
    </symbol>
    <symbol
      id="add" viewBox="0 0 33 32">
      <path fill-rule="evenodd" clip-rule="evenodd"
        d="M17.334 17L17.334 32L15.334 32L15.334 17H0.333984V15H15.334L15.334 0H17.334L17.334 15H32.334V17H17.334Z"
        fill="black" />
    </symbol>
    <symbol id="arrow-left" viewBox="0 0 24 24">
      <path
        d="M14.283 3.501L6.51005 11.475C6.37352 11.6151 6.29712 11.8029 6.29712 11.9985C6.29712 12.1941 6.37352 12.3819 6.51005 12.522L14.283 20.499C14.3466 20.5643 14.4227 20.6162 14.5067 20.6517C14.5906 20.6871 14.6809 20.7054 14.772 20.7054C14.8632 20.7054 14.9534 20.6871 15.0374 20.6517C15.1214 20.6162 15.1975 20.5643 15.261 20.499C15.3919 20.3651 15.4651 20.1852 15.4651 19.998C15.4651 19.8108 15.3919 19.6309 15.261 19.497L7.95155 11.9985L15.261 4.5015C15.3914 4.36762 15.4644 4.18813 15.4644 4.00125C15.4644 3.81437 15.3914 3.63488 15.261 3.501C15.1975 3.43569 15.1214 3.38377 15.0374 3.34833C14.9534 3.31288 14.8632 3.29462 14.772 3.29462C14.6809 3.29462 14.5906 3.31288 14.5067 3.34833C14.4227 3.38377 14.3466 3.43569 14.283 3.501Z"
      />
    </symbol>
    <symbol
      id='logout' viewBox="0 0 24 24" fill="none">
      <path stroke="currentColor" stroke-linecap="round" stroke-linejoin="round" stroke-width="2"
        d="M15.1 16.94c-.31 3.6-2.16 5.07-6.21 5.07h-.13c-4.47 0-6.26-1.79-6.26-6.26V9.23c0-4.47 1.79-6.26 6.26-6.26h.13c4.02 0 5.87 1.45 6.2 4.99M9 12.5h11.38m-2.23 3.35 3.35-3.35-3.35-3.35" />
    </symbol>
    <symbol
      id="google" fill="none">
      <path fill="#FFC107"
        d="M36.443 16.736H35.1v-.07h-15v6.667h9.42C28.144 27.214 24.452 30 20.1 30c-5.522 0-10-4.477-10-10s4.478-10 10-10c2.55 0 4.869.962 6.634 2.533l4.715-4.715C28.472 5.044 24.49 3.333 20.1 3.333 10.896 3.333 3.434 10.796 3.434 20S10.896 36.667 20.1 36.667 36.767 29.204 36.767 20c0-1.117-.115-2.208-.324-3.264Z" />
      <path fill="#FF3D00"
        d="m5.355 12.242 5.476 4.016C12.313 12.59 15.9 10 20.1 10c2.55 0 4.868.962 6.634 2.533l4.714-4.715C28.472 5.044 24.49 3.333 20.1 3.333c-6.402 0-11.953 3.615-14.745 8.91Z" />
      <path fill="#4CAF50"
        d="M20.1 36.667c4.305 0 8.217-1.648 11.174-4.327l-5.158-4.365A9.925 9.925 0 0 1 20.1 30c-4.335 0-8.016-2.764-9.402-6.622l-5.435 4.188c2.758 5.397 8.36 9.1 14.837 9.1Z" />
      <path fill="#1976D2"
        d="M36.443 16.736H35.1v-.07h-15v6.667h9.42a10.034 10.034 0 0 1-3.407 4.643l.003-.002 5.158 4.365c-.365.332 5.493-4.006 5.493-12.339 0-1.117-.115-2.208-.324-3.264Z" />
    </symbol>
    <symbol
      id="linkedin" viewBox="0 0 41 40" fill="none">
      <path fill="#fff"
        d="M30.725 0H9.475A9.375 9.375 0 0 0 .1 9.375v21.25A9.375 9.375 0 0 0 9.475 40h21.25a9.375 9.375 0 0 0 9.375-9.375V9.375A9.375 9.375 0 0 0 30.725 0Z" />
      <path fill="#0A66C2"
        d="M30.725 0H9.475A9.375 9.375 0 0 0 .1 9.375v21.25A9.375 9.375 0 0 0 9.475 40h21.25a9.375 9.375 0 0 0 9.375-9.375V9.375A9.375 9.375 0 0 0 30.725 0Z" />
      <path fill="#fff"
        d="M28.962 34.013h4.573a.625.625 0 0 0 .625-.625l.003-9.662c0-5.05-1.089-8.933-6.99-8.933a6.134 6.134 0 0 0-5.502 3.005.05.05 0 0 1-.093-.026v-1.888a.625.625 0 0 0-.625-.625h-4.34a.625.625 0 0 0-.625.625v17.504a.625.625 0 0 0 .625.625h4.573a.624.624 0 0 0 .625-.625v-8.652c0-2.447.464-4.816 3.497-4.816 2.99 0 3.029 2.8 3.029 4.974v8.494a.625.625 0 0 0 .625.625ZM6.038 9.317a3.396 3.396 0 0 0 3.38 3.379 3.396 3.396 0 0 0 3.378-3.38 3.395 3.395 0 0 0-3.379-3.379 3.395 3.395 0 0 0-3.38 3.38Zm1.087 24.696h4.58a.625.625 0 0 0 .624-.625V15.884a.625.625 0 0 0-.625-.625h-4.58a.625.625 0 0 0-.624.625v17.504a.625.625 0 0 0 .625.625Z" />
    </symbol>
    <symbol
      id="trashBacket-icon" width="20" height="22" fill="none">
      <path stroke="currentColor" stroke-linecap="round" stroke-linejoin="round"
        d="M1 5h2m0 0h16M3 5v14a2 2 0 0 0 2 2h10a2 2 0 0 0 2-2V5M6 5V3a2 2 0 0 1 2-2h4a2 2 0 0 1 2 2v2" />
    </symbol>

    <symbol
      id="cross" viewBox="0 0 16 16" fill="none">
      <path stroke="currentColor" stroke-linecap="round" stroke-width="1.4" d="M15 15 1 1m14 0L1 15" />
    </symbol>
    {socialMedia icons ================ start} <symbol id="behance" viewBox="0 0 32 32">
      <path fill="#4175fa"
        d="M27.2 0h-22.4c-2.651 0-4.8 2.149-4.8 4.8v22.4c0 2.651 2.149 4.8 4.8 4.8h22.4c2.651 0 4.8-2.149 4.8-4.8v-22.4c0-2.651-2.149-4.8-4.8-4.8z"></path>
      <path fill="#fff"
        d="M21.632 13.241c-4.586 0-4.592 4.569-4.592 4.592 0 0-0.314 4.574 4.592 4.574 0 0 4.091 0.233 4.091-3.184h-2.101c0 0 0.070 1.286-1.921 1.286 0 0-2.101 0.14-2.101-2.078h6.193c0 0 0.681-5.191-4.162-5.191zM19.578 16.832c0 0 0.256-1.839 2.101-1.839 1.851 0 1.822 1.839 1.822 1.839h-3.923zM14.329 15.657c0 0 1.822-0.134 1.822-2.276 0-2.136-1.49-3.184-3.381-3.184h-6.222v11.96h6.221c0 0 3.801 0.117 3.801-3.533 0 0 0.163-2.968-2.24-2.968zM9.288 12.322h3.48c0 0 0.844 0 0.844 1.245s-0.495 1.426-1.059 1.426h-3.265v-2.671zM12.594 20.034h-3.306v-3.201h3.48c0 0 1.263-0.012 1.257 1.647 0 1.397-0.937 1.543-1.432 1.554zM19.060 10.902v1.473h4.936v-1.473h-4.936z"></path>
    </symbol>
    <symbol
      id="dribbble" viewBox="0 0 32 32">
      <path fill="#e74d89"
        d="M15.999 1.063c8.25 0 14.925 6.675 14.925 14.912s-6.675 14.925-14.925 14.925c-8.25 0-14.925-6.675-14.925-14.912s6.675-14.925 14.925-14.925z"></path>
      <path fill="#b2215a"
        d="M16 31.962c-8.825 0-16-7.163-16-15.975 0-8.825 7.175-15.988 16-15.988s16 7.162 16 15.975c0 8.813-7.175 15.988-16 15.988zM29.488 18.163c-0.462-0.15-4.225-1.262-8.512-0.587 1.788 4.9 2.512 8.9 2.65 9.725 3.075-2.063 5.262-5.337 5.863-9.137zM21.337 28.563c-0.2-1.2-1-5.375-2.913-10.35-0.025 0.012-0.063 0.025-0.087 0.025-7.713 2.688-10.475 8.025-10.725 8.525 2.313 1.8 5.225 2.875 8.387 2.875 1.888 0.012 3.7-0.375 5.338-1.075zM5.85 25.125c0.313-0.525 4.063-6.725 11.112-9.012 0.175-0.063 0.363-0.113 0.538-0.162-0.337-0.775-0.712-1.55-1.113-2.313-6.825 2.037-13.45 1.95-14.050 1.938 0 0.137-0.013 0.275-0.013 0.412 0.013 3.512 1.337 6.713 3.525 9.137zM2.625 13.2c0.612 0.012 6.238 0.037 12.637-1.662-2.262-4.025-4.713-7.4-5.063-7.888-3.838 1.8-6.688 5.325-7.575 9.55zM12.8 2.725c0.375 0.5 2.863 3.875 5.1 7.988 4.863-1.825 6.913-4.575 7.163-4.925-2.413-2.138-5.587-3.438-9.063-3.438-1.1 0-2.175 0.138-3.2 0.375zM26.575 7.362c-0.288 0.388-2.575 3.325-7.625 5.388 0.313 0.65 0.625 1.313 0.913 1.975 0.1 0.238 0.2 0.475 0.3 0.7 4.55-0.575 9.063 0.35 9.512 0.438-0.038-3.213-1.188-6.175-3.1-8.5z"></path>
    </symbol>
    <symbol
      id="facebook" viewBox="0 0 32 32">
      <path fill="#1877f2"
        d="M27.2 0h-22.4c-2.651 0-4.8 2.149-4.8 4.8v22.4c0 2.651 2.149 4.8 4.8 4.8h22.4c2.651 0 4.8-2.149 4.8-4.8v-22.4c0-2.651-2.149-4.8-4.8-4.8z"></path>
      <path fill="#fff"
        d="M22.225 20.625l0.712-4.625h-4.438v-3c0-1.262 0.619-2.5 2.606-2.5h2.019v-3.938c0 0-1.831-0.313-3.581-0.313-3.656 0-6.044 2.213-6.044 6.225v3.525h-4.063v4.625h4.063v11.375h5v-11.375h3.725z"></path>
    </symbol>
    <symbol
      id="github" viewBox="0 0 32 32">
      <path
        d="M16.001 1.333c-3.849-0.039-7.556 1.451-10.306 4.144s-4.319 6.367-4.361 10.216c0.015 3.041 0.993 6 2.795 8.451s4.333 4.267 7.232 5.189c0.733 0.133 1-0.307 1-0.693s0-1.24 0-2.44c-4.080 0.867-4.947-1.92-4.947-1.92-0.272-0.875-0.849-1.623-1.627-2.107-1.333-0.88 0.107-0.867 0.107-0.867 0.461 0.062 0.902 0.227 1.29 0.483s0.713 0.597 0.95 0.997c0.414 0.718 1.093 1.244 1.891 1.466s1.651 0.122 2.376-0.279c0.075-0.73 0.405-1.41 0.933-1.92-3.253-0.36-6.667-1.587-6.667-7.093-0.029-1.436 0.502-2.828 1.48-3.88-0.446-1.233-0.393-2.592 0.147-3.787 0 0 1.24-0.387 4 1.467 2.402-0.64 4.931-0.64 7.333 0 2.8-1.853 4-1.467 4-1.467 0.54 1.195 0.592 2.553 0.147 3.787 1.001 1.033 1.561 2.415 1.56 3.853 0 5.52-3.44 6.733-6.667 7.093 0.353 0.343 0.626 0.76 0.799 1.221s0.241 0.955 0.201 1.445v3.933c0 0 0.267 0.84 1 0.693 2.89-0.927 5.414-2.744 7.21-5.192s2.773-5.399 2.79-8.435c-0.042-3.849-1.611-7.523-4.361-10.216s-6.457-4.183-10.306-4.144z"></path>
    </symbol>
    <symbol
      id="gitlab" viewBox="0 0 32 32">
      <path fill="#e24329"
        d="M16.009 32.010l5.888-19.657h-11.776l5.888 19.657z"></path>
      <path fill="#fc6d26"
        d="M16.009 32.010l-5.888-19.657h-8.252l14.14 19.657z"></path>
      <path fill="#fca326"
        d="M1.869 12.353l-1.789 5.974c-0.163 0.545 0.016 1.142 0.443 1.478l15.486 12.205-14.14-19.657z"></path>
      <path fill="#e24329"
        d="M1.869 12.353h8.252l-3.546-11.839c-0.182-0.609-0.977-0.609-1.159 0l-3.546 11.839z"></path>
      <path fill="#fc6d26"
        d="M16.010 32.010l5.888-19.657h8.252l-14.14 19.657z"></path>
      <path fill="#fca326"
        d="M30.15 12.353l1.789 5.974c0.163 0.545-0.015 1.142-0.443 1.478l-15.486 12.205 14.14-19.657z"></path>
      <path fill="#e24329"
        d="M30.148 12.353h-8.252l3.546-11.839c0.182-0.609 0.977-0.609 1.159 0l3.546 11.839z"></path>
    </symbol>
    <symbol
      id="linkedin" viewBox="0 0 23 23" fill="none">
      <path
        d="M1.26479 8.18262H5.79229V22.7501H1.26479V8.18262ZM3.52979 0.932617C4.04907 0.932617 4.55668 1.08663 4.98842 1.37518C5.42015 1.66373 5.7566 2.07385 5.95521 2.55365C6.15382 3.03345 6.20565 3.56138 6.10416 4.07065C6.00267 4.57992 5.75242 5.04764 5.38506 5.41466C5.01769 5.78167 4.54973 6.03148 4.04036 6.13248C3.531 6.23349 3.00312 6.18115 2.52351 5.98208C2.0439 5.78302 1.6341 5.44618 1.34596 5.01417C1.05782 4.58216 0.904292 4.0744 0.904786 3.55512C0.905449 2.85936 1.1823 2.19232 1.67451 1.70058C2.16673 1.20884 2.83403 0.932617 3.52979 0.932617Z"
        fill="white" />
      <path
        d="M8.63232 8.1826H12.9723V10.1826H13.0323C13.6373 9.0376 15.1123 7.8301 17.3148 7.8301C21.8998 7.8201 22.7498 10.8376 22.7498 14.7501V22.7501H18.2223V15.6626C18.2223 13.9751 18.1923 11.8026 15.8698 11.8026C13.5473 11.8026 13.1523 13.6426 13.1523 15.5526V22.7501H8.63232V8.1826Z"
        fill="white" />
    </symbol>
   
    <symbol
      id="upwork" viewBox="0 0 32 32">
      <path fill="#6fda44"
        d="M27.2 0h-22.4c-2.651 0-4.8 2.149-4.8 4.8v22.4c0 2.651 2.149 4.8 4.8 4.8h22.4c2.651 0 4.8-2.149 4.8-4.8v-22.4c0-2.651-2.149-4.8-4.8-4.8z"></path>
      <path fill="#fff"
        d="M22.325 18.556c-1.063 0-2.063-0.45-2.962-1.181l0.219-1.038 0.006-0.038c0.2-1.1 0.819-2.95 2.738-2.95 1.438 0 2.606 1.169 2.606 2.606s-1.169 2.6-2.606 2.6zM22.325 10.713c-2.45 0-4.344 1.588-5.119 4.206-1.175-1.769-2.069-3.887-2.588-5.675h-2.638v6.856c0 1.356-1.1 2.456-2.456 2.456s-2.456-1.1-2.456-2.456v-6.862h-2.631v6.856c0 2.806 2.281 5.113 5.088 5.113s5.088-2.306 5.088-5.113v-1.15c0.512 1.069 1.137 2.15 1.9 3.1l-1.613 7.587h2.694l1.169-5.5c1.025 0.656 2.2 1.069 3.55 1.069 2.887 0 5.238-2.363 5.238-5.256 0.006-2.881-2.337-5.231-5.225-5.231z"></path>
    </symbol>
    {socialMedia icons ================ end} <symbol id="icon-check_status" viewBox="0 0 21 20"
      fill="none">
      <path stroke="currentColor" stroke-linecap="round" stroke-linejoin="round"
        d="m7 9.132 3 3 10-10m-1 8v7a2 2 0 0 1-2 2H3a2 2 0 0 1-2-2v-14a2 2 0 0 1 2-2h11" />
    </symbol>

  </defs>
</svg>