<svg aria-hidden="true" style="position: absolute; width: 0; height: 0; overflow: hidden;"
    version="1.1" xmlns="http://www.w3.org/2000/svg" xmlns:xlink="http://www.w3.org/1999/xlink">
    <defs>
        <symbol id="icon-arrow_down" viewBox="0 0 32 32">
            <path fill="none" stroke="currentColor" stroke-linejoin="round" stroke-linecap="round"
                stroke-miterlimit="4" stroke-width="3.4286"
                d="M2.286 9.143l13.714 13.714 13.714-13.714"></path>
        </symbol>
        <symbol id="icon-arrow-up-right" viewBox="0 0 12 12">
            <path d="M1 11L11 1M11 1H1M11 1V11" stroke="currentColor" stroke-width="2"
                stroke-linecap="round" stroke-linejoin="round" />
        </symbol>
        <symbol id="icon-code" viewBox="0 0 32 32">
            <path stroke-linejoin="round" stroke-linecap="round" stroke-miterlimit="4"
                stroke-width="2.6667" d="M21.333 24l8-8-8-8M10.667 8l-8 8 8 8"></path>
        </symbol>
        <symbol id="icon-cross" viewBox="0 0 32 32">
            <path stroke-linejoin="round" stroke-linecap="round" stroke-miterlimit="4"
                stroke-width="2.6667" d="M24 8l-16 16M8 8l16 16"></path>
        </symbol>
        <symbol id="icon-external_api" viewBox="0 0 32 32">
            <path stroke-linejoin="round" stroke-linecap="round" stroke-miterlimit="4"
                stroke-width="2.6667"
                d="M24 4c-2.209 0-4 1.791-4 4v0 16c0 2.209 1.791 4 4 4s4-1.791 4-4c0-2.209-1.791-4-4-4v0h-16c-2.209 0-4 1.791-4 4s1.791 4 4 4c2.209 0 4-1.791 4-4v0-16c0-2.209-1.791-4-4-4s-4 1.791-4 4c0 2.209 1.791 4 4 4v0h16c2.209 0 4-1.791 4-4s-1.791-4-4-4v0z"></path>
        </symbol>
        <symbol id="icon-github" viewBox="0 0 32 32">
            <path stroke-linejoin="round" stroke-linecap="round" stroke-miterlimit="4"
                stroke-width="2.6667"
                d="M12 25.333c-6.667 2-6.667-3.333-9.333-4M21.333 29.333v-5.16c0.009-0.105 0.014-0.228 0.014-0.352 0-1.216-0.483-2.32-1.268-3.129l0.001 0.001c4.187-0.467 8.587-2.053 8.587-9.333-0-1.94-0.762-3.702-2.003-5.003l0.003 0.003c0.27-0.702 0.427-1.515 0.427-2.364 0-0.962-0.201-1.878-0.564-2.707l0.017 0.044s-1.573-0.467-5.213 1.973c-1.399-0.394-3.007-0.621-4.667-0.621s-3.267 0.227-4.792 0.651l0.125-0.030c-3.64-2.44-5.213-1.973-5.213-1.973-0.346 0.785-0.547 1.701-0.547 2.663 0 0.849 0.157 1.661 0.442 2.41l-0.016-0.046c-1.238 1.299-2 3.061-2 5.001 0 0.014 0 0.027 0 0.041v-0.002c0 7.227 4.4 8.813 8.587 9.333-0.782 0.808-1.264 1.91-1.264 3.125 0 0.111 0.004 0.221 0.012 0.33l-0.001-0.015v5.16"></path>
        </symbol>
        <symbol id="icon-layout" viewBox="0 0 32 32">
            <path stroke-linejoin="round" stroke-linecap="round" stroke-miterlimit="4"
                stroke-width="2.6667"
                d="M25.333 4h-18.667c-1.473 0-2.667 1.194-2.667 2.667v0 18.667c0 1.473 1.194 2.667 2.667 2.667v0h18.667c1.473 0 2.667-1.194 2.667-2.667v0-18.667c0-1.473-1.194-2.667-2.667-2.667v0zM4 12h24M12 28v-16"></path>
        </symbol>
        <symbol id="icon-mobile_menu" viewBox="0 0 32 32">
            <path stroke-linejoin="round" stroke-linecap="round" stroke-miterlimit="4"
                stroke-width="2.6667" d="M28 13.333h-18.667M28 8h-24M28 18.667h-24M28 24h-18.667"></path>
        </symbol>
        <symbol id="icon-mouse_pointer" viewBox="0 0 32 32">
            <path stroke-linejoin="round" stroke-linecap="round" stroke-miterlimit="4"
                stroke-width="2.6667"
                d="M4 4l9.427 22.627 3.347-9.853 9.853-3.347-22.627-9.427zM17.333 17.333l8 8"></path>
        </symbol>
        <symbol id="icon-openai" viewBox="0 0 32 32">
            <path
                d="M2.99976 13V17M3.99976 1V5M4.99976 15H0.999756M5.99976 3H1.99976M10.9998 1L12.7526 5.44437C12.9405 5.92083 13.0345 6.15906 13.1784 6.35994C13.3059 6.538 13.4618 6.69391 13.6399 6.82143C13.8407 6.9653 14.079 7.0593 14.5554 7.2472L18.9998 9L14.5554 10.7528C14.079 10.9407 13.8407 11.0347 13.6399 11.1786C13.4618 11.3061 13.3059 11.462 13.1784 11.6401C13.0345 11.8409 12.9405 12.0792 12.7526 12.5556L10.9998 17L9.24696 12.5556C9.05906 12.0792 8.96506 11.8409 8.82116 11.6401C8.69366 11.462 8.53776 11.3061 8.35966 11.1786C8.15886 11.0347 7.92059 10.9407 7.44413 10.7528L2.99976 9L7.44413 7.2472C7.92059 7.0593 8.15886 6.9653 8.35966 6.82143C8.53776 6.69391 8.69366 6.538 8.82116 6.35994C8.96506 6.15906 9.05906 5.92083 9.24696 5.44437L10.9998 1Z"
                stroke="#171717" stroke-width="1.6" stroke-linecap="round" stroke-linejoin="round" />
                
            <!-- <path stroke-linejoin="round" stroke-linecap="round" stroke-miterlimit="4"
            stroke-width="2.1333" d="M6.667 21.333v5.333M8 5.333v5.333M9.333 24h-5.333M10.667
            8h-5.333M17.333 5.333l2.337 5.925c0.251 0.636 0.375 0.953 0.567 1.221 0.171 0.237 0.379
            0.445 0.616 0.615 0.267 0.192 0.585 0.317 1.22 0.568l5.927 2.337-5.927 2.337c-0.635
            0.251-0.952 0.376-1.22 0.568-0.239 0.172-0.443 0.376-0.611 0.607l-0.005 0.008c-0.192
            0.267-0.317 0.587-0.567 1.221l-2.337
            5.925-2.337-5.925c-0.251-0.636-0.376-0.953-0.568-1.221-0.172-0.239-0.376-0.442-0.607-0.609l-0.008-0.005c-0.268-0.192-0.587-0.317-1.221-0.568l-5.925-2.337
            5.925-2.337c0.636-0.251 0.953-0.376 1.221-0.568 0.237-0.169 0.445-0.377 0.615-0.615
            0.192-0.267 0.317-0.587 0.568-1.221l2.337-5.925z"></path> -->
        </symbol>
        <symbol id="icon-sliders" viewBox="0 0 32 32">
            <path stroke-linejoin="round" stroke-linecap="round" stroke-miterlimit="4"
                stroke-width="2.6667"
                d="M5.333 28v-9.333M5.333 13.333v-9.333M16 28v-12M16 10.667v-6.667M26.667 28v-6.667M26.667 16v-12M1.333 18.667h8M12 10.667h8M22.667 21.333h8"></path>
        </symbol>
    </defs>
</svg>